<svg version="1" xmlns="http://www.w3.org/2000/svg" width="304" height="304" viewBox="0 0 228.000000 228.000000"><path d="M105.8 1.9c-1.3 1-4.5 2.2-7.3 2.6-6 .8-8.5 2.1-8.5 4 0 1-.8 1.3-2.7.9-3.6-.7-9.6 3.5-8.2 5.7 1.7 2.7 1 4.9-1.6 4.9-2.7 0-3.2.9-1.4 2.7.7.7.1 1.4-2.1 2.3-1.7.7-4.1 3-5.5 5.4-1.4 2.2-2.5 3.4-2.5 2.6 0-.9-.6-.7-1.6.8-1.1 1.6-1.4 3.4-1 5.5.4 1.8.7 4.3.6 5.7 0 1.8.3 2.1.9 1.1.6-.9 1.1-1 1.5-.2.4.6.4 1.1-.1 1.1-.4 0 0 .5 1 1.1 2 1.2 2.3 3.5.5 3.7-.7 0-2.6.4-4.3.9l-2.9.9 2.9 1.5c1.7.8 3.9 1.4 5 1.4 1.1-.1 3.5-.2 5.3-.3 2.7-.2 3.2-.6 3.2-2.7 0-1.4.5-2.5 1-2.5.6 0 1 .4 1 .8 0 1.5 3.7 5.2 5.2 5.2.8 0 2.8 1 4.6 2.3 1.7 1.3 4.9 3 7.2 3.7 3.8 1.2 4.2 1.2 6.1-.8 1.2-1.3 3.2-2.2 4.9-2.2 1.7 0 3-.5 3-1 0-.6 1.5-1 3.4-1 2.5 0 3.8.6 5 2.5.9 1.4 2.7 2.7 4 3.1 2.7.6 5.3 4 8 10.1 1.1 2.4 2.4 4.3 3.1 4.3 2.5 0 9.6-6 14.9-12.5 2.4-3 2.5-3 5.3-1.3 4 2.4 4.3 8.5.8 16.4-2.2 4.9-2.5 6.8-1.9 10.9.8 6.1 2 7.8 4.8 6.9 1.7-.6 1.9-.4 1 .7-.9 1.1-.5 3.1 1.6 8.9 2.6 7 2.8 7.3 4 5.1.7-1.4.8-2.6.3-3-2.1-1.4-6-10-5.1-10.9.6-.6 1.2-2.8 1.4-5 .2-2.1 1-5.2 1.9-6.8.8-1.6 1.5-3.9 1.5-5.2 0-1.3.3-2.1.8-1.9.4.3.7-1.1.7-3.1.1-2.1.5-4.6 1-5.7.4-1.1.9-2.2 1-2.5.1-.3.4-1.2.8-2 2.5-6.6 2.7-38.9.2-47.5-2-6.8-6.8-14-11.5-17.1C153.4 0 153.1 0 130.7.1c-20.1.1-22.9.3-24.9 1.8zM102 8.7c0 1.3-.3 1.3-1.5.3-.8-.7-1.5-1.6-1.5-2.1s.7-.6 1.5-.3c.8.4 1.5 1.3 1.5 2.1zm-7-.2c0 .8-.4 1.5-1 1.5-.5 0-.7-.7-.4-1.5.4-.8.8-1.5 1-1.5.2 0 .4.7.4 1.5zm-10 5c1 1.2 1 1.5-.4 1.5-.9 0-1.6-.7-1.6-1.5s.2-1.5.4-1.5.9.7 1.6 1.5zM40 26.4c0 .2.7.7 1.6 1 .8.3 1.2.2.9-.4-.6-1-2.5-1.4-2.5-.6zM53 32c0 .5.7.7 1.5.4.8-.4 1.5-.8 1.5-1 0-.2-.7-.4-1.5-.4s-1.5.4-1.5 1zM205.5 34c.4.6 1.1.8 1.6.5 1.4-.9 1.1-1.5-.7-1.5-.8 0-1.2.5-.9 1zM195.5 35.1c-1.1 1.6-.1 1.9 1.3.3.7-.8.8-1.4.3-1.4s-1.3.5-1.6 1.1zM20 41.9c0 .5-.8 1.2-1.7 1.4-1.5.4-1.5.5-.2.6.9 0 2.2-.6 2.9-1.4.9-1 .9-1.5.1-1.5-.6 0-1.1.4-1.1.9zM51.6 52.7c-.6 1.4-.5 1.5.5.6.7-.7 1-1.5.7-1.8-.3-.3-.9.2-1.2 1.2zM56.8 51.7c.7.3 1.6.2 1.9-.1.4-.3-.2-.6-1.3-.5-1.1 0-1.4.3-.6.6zM57.5 56c-.3.5.3 1 1.5 1s1.8-.5 1.5-1c-.3-.6-1-1-1.5-1s-1.2.4-1.5 1zM75.7 67.6c-.7.8.4 3.6 1.9 4.9 1.7 1.5 2.7 6.5 1.3 6.5-.7 0-1 .3-.6.6 1.3 1.3 4.7-.8 4.7-3 0-2.3-6.3-10-7.3-9z"/><path d="M148.7 67.7c-.4.3-.7 1.1-.7 1.7 0 .6.5.5 1.2-.2.6-.6.9-1.4.7-1.7-.3-.3-.9-.2-1.2.2zM153.8 69.7c.5 2.1.7 2.3 1 .9.2-1 0-2.2-.6-2.8-.6-.6-.7 0-.4 1.9zM1.5 70c-.4.6.3 1 1.4 1 2.5 0 2.7-.6.6-1.3-.8-.4-1.7-.2-2 .3zM89.3 70.2c-1.8.6-3.3 1.8-3.3 2.6s2.4 3.6 5.3 6.3c6.4 5.9 9.8 6.4 14.5 1.9 1.8-1.7 2.8-3 2.4-3-.4 0 0-.4.8-1 1.1-.7.9-1.1-1.3-1.9-1.5-.6-2.7-1.7-2.7-2.4 0-1.5-6.3-3.8-10.1-3.6-1.3.1-3.9.6-5.6 1.1zm14.5 6.2c.2.3.1.9-.2 1.4-.8 1.3-4.2.4-5.8-1.6-1.1-1.4-.9-1.5 2.1-.9 1.9.4 3.6.9 3.9 1.1zM174 69.4c0 .2.7.7 1.6 1 .8.3 1.2.2.9-.4-.6-1-2.5-1.4-2.5-.6zM50 71c0 1.3 1.1 1.3 3 0 1.2-.8 1.1-1-.7-1-1.3 0-2.3.4-2.3 1zM147 73.3c0 .7.9 1.3 2 1.3s2-.1 2-.3c0-.1-.9-.7-2-1.3-1.5-.8-2-.8-2 .3zM145 78.1c0 .5.5.7 1 .4.6-.3 1-.8 1-1.1 0-.2-.4-.4-1-.4-.5 0-1 .5-1 1.1zM20.8 79.7c.7.3 1.6.2 1.9-.1.4-.3-.2-.6-1.3-.5-1.1 0-1.4.3-.6.6zM72.5 81c-.4.6.3 1 1.4 1 2.5 0 2.7-.6.6-1.3-.8-.4-1.7-.2-2 .3zM5 82.8c0 1.4 1.1 2.1 2.6 1.5.8-.3 1.1-.9.8-1.4-.7-1.1-3.4-1.2-3.4-.1zM58 84c-1.3.8-1.3 1 .2 1 .9 0 2-.5 2.3-1 .8-1.3-.5-1.3-2.5 0zM215.2 91.1c.2.7 1.2 1.3 2.1 1.5 2.3.3 2.1-.3-.4-1.7-1.7-.8-2-.8-1.7.2zM59.8 93.7c.7.3 1.6.2 1.9-.1.4-.3-.2-.6-1.3-.5-1.1 0-1.4.3-.6.6zM93.5 95.3c-.6 1.3-2.5 2.6-4.7 3.2-2 .5-4 1.4-4.4 1.8-.5.4 0 .5 1 .1 1.4-.5 1.7-.4 1.2.5-.9 1.3.7 8.6 3 13.7 1.1 2.6 1.8 3 4.4 2.6 1.6-.2 3-.9 3-1.6 0-1.4-3.8-3.8-5-3.1-.5.3-1.1.1-1.5-.5-.3-.5 0-1.1.7-1.1.7-.1 2.4-.4 3.8-.6 1.4-.3 4.2-.6 6.3-.6 5.9-.3 3.6-2.1-3.4-2.8-3.6-.3-7-.8-7.6-1.2-1.5-.9 1-6.1 3.9-8.1 1.4-1 1.7-1.9 1.1-3-.7-1.3-1-1.2-1.8.7zM212.8 93.7c.7.3 1.6.2 1.9-.1.4-.3-.2-.6-1.3-.5-1.1 0-1.4.3-.6.6zM66.2 95.6c-.7.8-.8 1.4-.3 1.4 1 0 2.5-1.9 2-2.5-.2-.1-1 .3-1.7 1.1z"/><path d="M99 100.3c1.4 1.4 2.6 2.4 2.8 2.2.7-.7-.9-2.5-3.1-3.7-2-1-2-.9.3 1.5zM216 99c0 .5 1 1 2.3 1 1.8 0 1.9-.2.7-1-1.9-1.3-3-1.3-3 0zM212 104c0 .5.5 1 1.1 1 .5 0 .7-.5.4-1-.3-.6-.8-1-1.1-1-.2 0-.4.4-.4 1zM208.8 105.7c.7.3 1.6.2 1.9-.1.4-.3-.2-.6-1.3-.5-1.1 0-1.4.3-.6.6zM15.5 107c-.3.5-.2 1 .4 1 .5 0 1.3-.5 1.6-1 .3-.6.2-1-.4-1-.5 0-1.3.4-1.6 1zM172 107c-.8.5-1 1-.5 1 .6 0 1.7-.5 2.5-1s1.1-1 .5-1c-.5 0-1.7.5-2.5 1zM215.4 107.5c2.2 1.7 4 2 3.2.6-.3-.5-1.6-1.1-2.8-1.4-2.2-.6-2.2-.5-.4.8zM31.6 108.9c-.3.5.1 1.1.9 1.4.9.4 1.2.1.8-.9-.6-1.6-1-1.7-1.7-.5zM47.7 110.4c-.4 1-.1 1.3.8.9.8-.3 1.2-.9.9-1.4-.7-1.2-1.1-1.1-1.7.5zM81.8 111.7c.7.3 1.6.2 1.9-.1.4-.3-.2-.6-1.3-.5-1.1 0-1.4.3-.6.6zM211 112c0 .5 1.2 1 2.8.9 2.4 0 2.5-.1.7-.9-2.7-1.2-3.5-1.2-3.5 0zM187 114.1c0 .5.5.7 1 .4.6-.3 1-.8 1-1.1 0-.2-.4-.4-1-.4-.5 0-1 .5-1 1.1zM16 115.5c3.3 1.9 4.9 1.9 2.4 0-1-.8-2.6-1.4-3.4-1.4-.9 0-.4.6 1 1.4zM22 116.4c0 .2.7.9 1.5 1.6.9.7 1.5.8 1.5.2 0-.5-.7-1.2-1.5-1.6-.8-.3-1.5-.4-1.5-.2zM28 121c0 .5.5 1 1.1 1 .5 0 .7-.5.4-1-.3-.6-.8-1-1.1-1-.2 0-.4.4-.4 1zM195.6 122.5c-.9 2.6-.7 3.2.5 1.2.6-1 .9-2.1.6-2.3-.2-.3-.7.2-1.1 1.1zM118 123.7c.8.3.6 1.2-.3 2.6-1.3 2-1.9 4.4-3.3 12.7-.3 1.4-.7 3.4-1 4.5l-.5 2 1.2-2c.7-1.1 2.3-3.1 3.6-4.4 2.6-2.7 2.7-3.3 1.4-7.8-.5-1.8-.6-3.2-.3-3.2.4.1 1.6.1 2.7 0 1.8-.2 1.8-.3-.5-1.6-1.4-.7-2.4-1.7-2.2-2.1.2-.5-.1-.9-.7-1.1-.8-.1-.8 0-.1.4zM93.8 125.2c.6.6 1.8.8 2.8.6 1.4-.3 1.2-.5-.9-1-1.9-.3-2.5-.2-1.9.4zM215 126c0 .5.5 1 1 1 .6 0 1-.5 1-1 0-.6-.4-1-1-1-.5 0-1 .4-1 1zM225 127.4c0 .2.7.7 1.6 1 .8.3 1.2.2.9-.4-.6-1-2.5-1.4-2.5-.6zM2 131c0 .5.5 1 1 1 .6 0 1-.5 1-1 0-.6-.4-1-1-1-.5 0-1 .4-1 1zM74.8 130.7c.7.3 1.6.2 1.9-.1.4-.3-.2-.6-1.3-.5-1.1 0-1.4.3-.6.6zM208 131c0 .5.5 1 1.1 1 .5 0 .7-.5.4-1-.3-.6-.8-1-1.1-1-.2 0-.4.4-.4 1zM18.5 132c-.3.6.1.7.9.4 1.8-.7 2.1-1.4.7-1.4-.6 0-1.3.4-1.6 1zM21.5 133c-.3.5.1 1 .9 1 .9 0 1.6-.5 1.6-1 0-.6-.4-1-.9-1-.6 0-1.3.4-1.6 1zM195.3 134.8c0 2.8.6 3.6 3.8 5.2 2.1 1.1 4 2.4 4.4 3 1.1 1.8 4.1 1.1 5.3-1.3 2-3.8.2-8.2-2.9-7.4-1.1.3-1.7.1-1.3-.4.7-1.2-4.7-1.1-6.6.1-1.1.7-1.7.5-2.1-.8-.5-1.1-.7-.5-.6 1.6zM218.5 133c-.3.5.1 1 1 1s1.3-.5 1-1c-.3-.6-.8-1-1-1-.2 0-.7.4-1 1zM12 135.5c.7.9 1.5 1.3 1.7 1.1.7-.7-.7-2.6-1.9-2.6-.6 0-.6.6.2 1.5zM210 134.4c0 .2.9.6 2 .9 1.1.3 1.8.1 1.4-.4-.5-.9-3.4-1.3-3.4-.5zM19.1 136.3c-.6.8-.9 2.1-.5 3 .5 1.3.8 1.3 2.5-.4 1.9-1.9 4.5-2.7 3.5-1-.4.5.4.7 1.6.3 1.6-.4 1.8-.7.8-1-.8-.3-1.8-1-2.2-1.6-.6-.8-1.1-.6-1.8.4-.8 1.2-1.2 1.2-1.8.2-.7-1-1.1-1-2.1.1zM32.4 136.4c.3 1 .2 2.4-.4 3.1-.8.9-.5 1.4.9 1.8 1.5.4 1.8 0 1.6-2-.1-1.3-.8-3-1.5-3.6-1-1-1.2-.8-.6.7z"/><path d="M29 137.4c0 .2.7.7 1.6 1 .8.3 1.2.2.9-.4-.6-1-2.5-1.4-2.5-.6zM37.1 138.4c-.6.7-.9 2.1-.5 3 .7 1.8 3.4 2.2 3.4.5 0-.5.5-.7 1-.4.6.3 1 .1 1-.6 0-.6-.8-.9-2-.6-1.7.4-2 .2-1.5-1.4.7-2.2.2-2.4-1.4-.5zM63 139c0 .5.5 1 1.1 1 .5 0 .7-.5.4-1-.3-.6-.8-1-1.1-1-.2 0-.4.4-.4 1zM217 141c0 .5.5 1 1.1 1 .5 0 .7-.5.4-1-.3-.6-.8-1-1.1-1-.2 0-.4.4-.4 1zM3.5 143c.3.5.8 1 1.1 1 .2 0 .4-.5.4-1 0-.6-.5-1-1.1-1-.5 0-.7.4-.4 1zM43.8 143.7c.6.2 1.8.2 2.5 0 .6-.3.1-.5-1.3-.5-1.4 0-1.9.2-1.2.5zM219 144c-.9.6-1 1-.3 1 .6 0 1.5-.5 1.8-1 .8-1.2.4-1.2-1.5 0zM222.5 145c.3.5.8 1 1.1 1 .2 0 .4-.5.4-1 0-.6-.5-1-1.1-1-.5 0-.7.4-.4 1zM20 148c0 .5.5 1 1.1 1 .5 0 .7-.5.4-1-.3-.6-.8-1-1.1-1-.2 0-.4.4-.4 1zM1.3 149.4c.5 1.1.3 2.2-.4 2.7-.8.4-.4.9 1 1.4 1.1.3 2.1 1.1 2.1 1.6s.5.9 1.2.9c.6 0 .4-.8-.6-1.9-1-1.1-1.5-2.4-1.2-2.9.3-.5-.2-1.6-1.1-2.3-1.5-1.2-1.6-1.2-1 .5zM44 149c0 .5.5 1 1.1 1 .5 0 .7-.5.4-1-.3-.6-.8-1-1.1-1-.2 0-.4.4-.4 1zM34.6 150.5c-.3.8-.1 1.5.4 1.5.6 0 1-.7 1-1.5s-.2-1.5-.4-1.5-.6.7-1 1.5zM66 150.1c0 .5.5.7 1 .4.6-.3 1-.8 1-1.1 0-.2-.4-.4-1-.4-.5 0-1 .5-1 1.1zM129.6 150c-4.2 1.3-6.6 3.8-9.7 10.5-2.3 4.7-2.9 7.4-2.9 12.6 0 7.1.6 8.5 2.7 6.8.7-.6 1.3-.8 1.3-.3 0 .4.6-.1 1.4-1.2.8-1 1.9-2 2.5-2 .6-.1 1.2-.2 1.4-.3.9-.6 13.7-.4 13.7.2 0 .4 1.2.1 2.8-.6 1.5-.8 3.7-1.3 4.8-1.1 1.6.3 2.3-.3 2.8-1.9 1-3.9.6-16.1-.7-18.7-2-3.9-12.9-6.1-20.1-4zM40 151.6c0 .7 2.7 3.4 3.4 3.4 1.3 0 .5-2.8-1-3.4-1.9-.7-2.4-.8-2.4 0zM220 153c0 .5.5 1 1.1 1 .5 0 .7-.5.4-1-.3-.6-.8-1-1.1-1-.2 0-.4.4-.4 1zM18 155c0 .5.5 1 1 1 .6 0 1-.5 1-1 0-.6-.4-1-1-1-.5 0-1 .4-1 1zM32 156c-1.3.8-1.2 1 .3 1 .9 0 1.7-.5 1.7-1 0-1.2-.1-1.2-2 0zM68.6 157.6c.8 3.6.7 3.4 2.1 2.6.8-.5.5-1.5-.9-3.1l-1.9-2.5.7 3zM1.1 156.9c-.8.5-.9 1.1-.3 1.5.5.3 1.2-.1 1.6-.9.6-1.7.6-1.8-1.3-.6zM16 157.5c.7.9 1.5 1.3 1.7 1.1.7-.7-.7-2.6-1.9-2.6-.6 0-.6.6.2 1.5zM23.5 157c-.3.5-.2 1 .4 1 .5 0 1.3-.5 1.6-1 .3-.6.2-1-.4-1-.5 0-1.3.4-1.6 1zM20.5 158c.3.5.8 1 1.1 1 .2 0 .4-.5.4-1 0-.6-.5-1-1.1-1-.5 0-.7.4-.4 1zM6.5 159c.3.5.8 1 1.1 1 .2 0 .4-.5.4-1 0-.6-.5-1-1.1-1-.5 0-.7.4-.4 1zM38 162.1c0 .5.5.7 1 .4.6-.3 1-.8 1-1.1 0-.2-.4-.4-1-.4-.5 0-1 .5-1 1.1zM53.5 163c.3.5.8 1 1.1 1 .2 0 .4-.5.4-1 0-.6-.5-1-1.1-1-.5 0-.7.4-.4 1zM18.4 165.2c-.4.6-.3.8.4.4.5-.3 1.3 0 1.5.6.3.8.6.6.6-.5.1-1.9-1.4-2.3-2.5-.5zM35.6 164.9c-.4.5-.2 1.2.3 1.5.5.4 1.2.2 1.5-.3.4-.5.2-1.2-.3-1.5-.5-.4-1.2-.2-1.5.3zM78 166c0 .5.5 1 1 1 .6 0 1-.5 1-1 0-.6-.4-1-1-1-.5 0-1 .4-1 1zM0 166.4c0 .2.7.7 1.6 1 .8.3 1.2.2.9-.4-.6-1-2.5-1.4-2.5-.6zM8.7 167.1c.7.7 1.5 1 1.8.7.3-.3-.2-.9-1.2-1.2-1.4-.6-1.5-.5-.6.5zM26 166.9c0 .5.7 1.2 1.6 1.5 1.4.5 1.5.4.4-.9-1.4-1.7-2-1.9-2-.6zM71 168.1c0 1.1.4 1.8 1 1.4.5-.3.7-1.2.3-2-.7-2.1-1.3-1.9-1.3.6zM36 169.3c0 .4 1.4.6 3 .5 1.7-.1 3-.6 3-1s-1.3-.6-3-.5c-1.6.1-3 .5-3 1zM66.2 169.4c.7.8 1.7 1.2 2.2.9.4-.3.2-.9-.5-1.4-2.2-1.3-3.1-1.1-1.7.5zM48.6 170.7c-.6 1.4-.5 1.5.5.6.7-.7 1-1.5.7-1.8-.3-.3-.9.2-1.2 1.2zM33.2 171.4c.7.7 1.9 1.1 2.7.8 1.1-.4 1-.7-.5-1.3-2.9-1.2-3.6-1-2.2.5zM44.5 171c.3.5.8 1 1.1 1 .2 0 .4-.5.4-1 0-.6-.5-1-1.1-1-.5 0-.7.4-.4 1zM7 172.4c0 .2.7.7 1.6 1 .8.3 1.2.2.9-.4-.6-1-2.5-1.4-2.5-.6zM53.5 173c-.3.5-.1 1 .4 1 .6 0 1.1-.5 1.1-1 0-.6-.2-1-.4-1-.3 0-.8.4-1.1 1zM31 174.5c0 .8.4 1.5 1 1.5.5 0 .7-.7.4-1.5-.4-.8-.8-1.5-1-1.5-.2 0-.4.7-.4 1.5zM48.5 175.6c.9.9 1.9 1.3 2.3 1 .3-.4 0-1.1-.8-1.6-2.4-1.5-3.3-1.1-1.5.6zM223 174.4c0 .2.7.9 1.5 1.6.9.7 1.5.8 1.5.2 0-.5-.7-1.2-1.5-1.6-.8-.3-1.5-.4-1.5-.2zM39.7 176.1c.7.7 1.5 1 1.8.7.3-.3-.2-.9-1.2-1.2-1.4-.6-1.5-.5-.6.5zM47.1 177.7c-.1 1.2.4 2.5.9 2.8 1.2.7 1.2-.2 0-3-.8-1.9-.9-1.9-.9.2zM23 178.2c0 .9.5 2 1 2.3 1.3.8 1.3-.5 0-2.5-.8-1.3-1-1.3-1 .2zM14 180.4c0 .2.7.7 1.6 1 .8.3 1.2.2.9-.4-.6-1-2.5-1.4-2.5-.6zM24.4 187.1c-1 1.7.9 3 2.6 1.8 1.2-.9 1.2-1-.4-.5-1.3.5-1.7.2-1.2-.9.6-1.7 0-2-1-.4zM6 188.1c0 .5.5.7 1 .4.6-.3 1-.8 1-1.1 0-.2-.4-.4-1-.4-.5 0-1 .5-1 1.1zM37.6 187.9c-.4.7-.5 1.5-.2 1.8.9.9 1.9-.4 1.4-1.8-.4-1.1-.6-1.1-1.2 0zM64.5 192c-.3.6.1.7.9.4 1.8-.7 2.1-1.4.7-1.4-.6 0-1.3.4-1.6 1zM52.5 193.1c-1.1 1.6-.1 1.9 1.3.3.7-.8.8-1.4.3-1.4s-1.3.5-1.6 1.1zM9 194c0 .5.5 1 1.1 1 .5 0 .7-.5.4-1-.3-.6-.8-1-1.1-1-.2 0-.4.4-.4 1zM30.8 193.7c.7.3 1.6.2 1.9-.1.4-.3-.2-.6-1.3-.5-1.1 0-1.4.3-.6.6zM28 196c.8.5 2 1 2.5 1 .6 0 .3-.5-.5-1s-1.9-1-2.5-1c-.5 0-.3.5.5 1zM37.7 198.4c-.3.6.3 1.2 1.2 1.2.9 0 3.2.4 5.1.8 3.4.7 3.4.7 1-.7-3.9-2.1-6.8-2.6-7.3-1.3zM73.6 197.8c-.2.4.4.8 1.5.8 1 0 1.9-.4 1.9-.8s-.6-.8-1.4-.8c-.8 0-1.7.4-2 .8zM227.1 198.6c0 1.1.3 1.4.6.6.3-.7.2-1.6-.1-1.9-.3-.4-.6.2-.5 1.3zM10 198.9c0 .5.7 1.2 1.6 1.5 1.4.5 1.5.4.4-.9-1.4-1.7-2-1.9-2-.6zM55 202c-.9.6-1 1-.3 1 .6 0 1.5-.5 1.8-1 .8-1.2.4-1.2-1.5 0zM17 202.4c0 .2.7.7 1.6 1 .8.3 1.2.2.9-.4-.6-1-2.5-1.4-2.5-.6zM34.8 203.7c.7.3 1.6.2 1.9-.1.4-.3-.2-.6-1.3-.5-1.1 0-1.4.3-.6.6zM51.8 204.7c.7.3 1.6.2 1.9-.1.4-.3-.2-.6-1.3-.5-1.1 0-1.4.3-.6.6zM62.5 205c.3.5 1.1 1 1.6 1 .6 0 .7-.5.4-1-.3-.6-1.1-1-1.6-1-.6 0-.7.4-.4 1zM227.1 205.6c0 1.1.3 1.4.6.6.3-.7.2-1.6-.1-1.9-.3-.4-.6.2-.5 1.3zM1.1 206.6c0 1.1.3 1.4.6.6.3-.7.2-1.6-.1-1.9-.3-.4-.6.2-.5 1.3zM20.7 206.1c.7.7 1.5 1 1.8.7.3-.3-.2-.9-1.2-1.2-1.4-.6-1.5-.5-.6.5zM66.7 205.7c-.4.3-.7 1.1-.7 1.7 0 .6.5.5 1.2-.2.6-.6.9-1.4.7-1.7-.3-.3-.9-.2-1.2.2zM10 208.1c0 .5-.5.7-1.1.3-.8-.5-.8-.1 0 1.3.6 1.1.8 2.3.5 2.6-.9.9.6 4.7 1.8 4.7.6 0 .6-.6-.2-1.5-.7-.9-1-1.9-.6-2.2.4-.4 1.1-.1 1.6.7.7 1 1 1.1 1 .2 0-.6 1.1-1.2 2.4-1.2 2.5 0 4.3-1.6 3.2-2.8-.4-.3-1.6-.1-2.6.6-3.8 2.3-7.4.6-5-2.3.9-1.1.9-1.5.1-1.5-.6 0-1.1.5-1.1 1.1zM23.1 210.1c-1 .4-2.2 1.2-2.6 1.8-1 1.7 1.6 1.3 3.7-.6 1.1-.9 1.8-1.1 1.8-.5 0 1.6 1.7 1.5 2.3-.1.5-1.4-2.1-1.7-5.2-.6zM30 210.1c0 .5.5.7 1 .4.6-.3 1-.8 1-1.1 0-.2-.4-.4-1-.4-.5 0-1 .5-1 1.1zM37 209.9c0 .6.4 1.3 1 1.6.6.3.7-.1.4-.9-.7-1.8-1.4-2.1-1.4-.7zM44.7 211c-.3 1.2 0 2 .8 2 .7 0 1.5-.9 1.8-2 .3-1.2 0-2-.8-2-.7 0-1.5.9-1.8 2zM6 211.5c-1.1 1.3-1 1.4.4.9.9-.3 1.6-1 1.6-1.5 0-1.3-.6-1.1-2 .6zM54.6 211.3c.3 1 .9 1.5 1.2 1.2.3-.3 0-1.1-.7-1.8-1-.9-1.1-.8-.5.6zM62.3 212.5c-1.5 1.3-2.3 2.5-1.7 2.5.6 0 1.7-.7 2.4-1.5.8-1 2-1.3 3.4-.9 1.8.6 1.9.5.7-1-1.7-2-1.5-2.1-4.8.9zM226.7 212.7c-.4.3-.7 1.1-.7 1.7 0 .6.5.5 1.2-.2.6-.6.9-1.4.7-1.7-.3-.3-.9-.2-1.2.2zM4.2 215.9c-1 .6-.9 1.1.4 2.2 1 .8 1.5.9 1.1.2-.4-.7 0-1.6 1-2.2 1.4-.8 1.5-1 .3-1.1-.8 0-2.1.4-2.8.9zM29 217c0 .5.5 1 1 1 .6 0 1-.5 1-1 0-.6-.4-1-1-1-.5 0-1 .4-1 1zM55.3 219.9c0 1.1.5 1.8.9 1.5.4-.3.5-1.1.1-1.9-.7-2.1-1.2-1.9-1 .4zM2 219.8c0 .5.7.9 1.5.9s1.2-.4.9-.9c-.3-.4-.9-.8-1.5-.8-.5 0-.9.4-.9.8zM30.3 220.5c-.3.9-.3 1.8-.1 2.1.3.3.8-.4 1.1-1.6.6-2.3-.1-2.7-1-.5zM43.6 219.9c-.4.5-.2 1.2.3 1.5.5.4 1.2.2 1.5-.3.4-.5.2-1.2-.3-1.5-.5-.4-1.2-.2-1.5.3zM225.5 220c-.4.7-.1 1.6.6 2.1 1.7 1 2.6-.8 1.1-2.3-.6-.6-1.2-.6-1.7.2zM14 221.1c0 .5.5.7 1 .4.6-.3 1-.8 1-1.1 0-.2-.4-.4-1-.4-.5 0-1 .5-1 1.1zM48.5 221c-.8 1.3.3 3 1.8 3 .8 0 .7-.3-.2-.9-.7-.5-1-1.4-.7-2 .4-.6.5-1.1.2-1.1s-.8.4-1.1 1zM59.5 221c.3.5.8 1 1.1 1 .2 0 .4-.5.4-1 0-.6-.5-1-1.1-1-.5 0-.7.4-.4 1zM79.8 222.2c-.3 1.2-.9 3.1-1.3 4-.5 1.4-.2 1.8 1.4 1.8 1.6 0 2.1-.6 2.1-2.8 0-3.9-1.6-6.1-2.2-3zM42.6 224.2c.3.5 1 .6 1.5.3 1.3-.9 1.1-1.2-.6-1.2-.8 0-1.2.4-.9.9zM56.5 224c.3.5.8 1 1.1 1 .2 0 .4-.5.4-1 0-.6-.5-1-1.1-1-.5 0-.7.4-.4 1zM45.6 224.8c-.2.4-.1 1.4.4 2.2.7 1.1.9.9.7-.8-.1-2.4-.3-2.6-1.1-1.4zM8.8 225.7c.7.3 1.6.2 1.9-.1.4-.3-.2-.6-1.3-.5-1.1 0-1.4.3-.6.6zM40 226.5c-.7.9-.8 1.5-.2 1.5.5 0 1.2-.7 1.6-1.5.7-1.9.2-1.9-1.4 0zM54 226c0 .6.7 1 1.5 1s1.5-.2 1.5-.4-.7-.6-1.5-1c-.8-.3-1.5-.1-1.5.4zM3.5 227c-.3.5-.1 1 .4 1 .6 0 1.1-.5 1.1-1 0-.6-.2-1-.4-1-.3 0-.8.4-1.1 1z"/></svg>